<mxfile host="65bd71144e">
    <diagram id="ljnlCKTOAFxc45SOMeIX" name="Future System Plan">
        <mxGraphModel dx="2110" dy="1748" grid="1" gridSize="10" guides="1" tooltips="1" connect="1" arrows="1" fold="1" page="1" pageScale="1" pageWidth="1920" pageHeight="1200" math="0" shadow="0">
            <root>
                <mxCell id="0"/>
                <mxCell id="1" parent="0"/>
                <mxCell id="chN8bWa2i5D5HiaClgVc-1" value="Prospective Plan" style="text;html=1;align=left;verticalAlign=middle;resizable=0;points=[];autosize=1;strokeColor=none;fillColor=none;fontSize=24;" parent="1" vertex="1">
                    <mxGeometry x="80" y="197" width="200" height="40" as="geometry"/>
                </mxCell>
                <mxCell id="Tbqlr_wWn3guzqfGeRMc-20" style="edgeStyle=none;html=1;exitX=0;exitY=0.5;exitDx=0;exitDy=0;strokeWidth=1;startArrow=classic;startFill=1;endArrow=classic;endFill=1;" parent="1" source="Tbqlr_wWn3guzqfGeRMc-6" target="Tbqlr_wWn3guzqfGeRMc-1" edge="1">
                    <mxGeometry relative="1" as="geometry"/>
                </mxCell>
                <mxCell id="Tbqlr_wWn3guzqfGeRMc-23" style="edgeStyle=none;html=1;exitX=0.5;exitY=1;exitDx=0;exitDy=0;entryX=0.5;entryY=0;entryDx=0;entryDy=0;strokeWidth=1;startArrow=classic;startFill=1;endArrow=classic;endFill=1;" parent="1" source="Tbqlr_wWn3guzqfGeRMc-6" target="Tbqlr_wWn3guzqfGeRMc-22" edge="1">
                    <mxGeometry relative="1" as="geometry"/>
                </mxCell>
                <mxCell id="Tbqlr_wWn3guzqfGeRMc-6" value="Participant &amp;amp; Content DB" style="shape=datastore;whiteSpace=wrap;html=1;fontSize=24;" parent="1" vertex="1">
                    <mxGeometry x="1362.16" y="736" width="210" height="98.67" as="geometry"/>
                </mxCell>
                <mxCell id="Tbqlr_wWn3guzqfGeRMc-11" style="edgeStyle=none;html=1;strokeWidth=1;startArrow=none;startFill=0;endArrow=classic;endFill=1;exitX=0.5;exitY=1;exitDx=0;exitDy=0;exitPerimeter=0;" parent="1" source="Tbqlr_wWn3guzqfGeRMc-9" target="Tbqlr_wWn3guzqfGeRMc-10" edge="1">
                    <mxGeometry relative="1" as="geometry">
                        <mxPoint x="1467.16" y="430" as="sourcePoint"/>
                    </mxGeometry>
                </mxCell>
                <mxCell id="Tbqlr_wWn3guzqfGeRMc-9" value="Google Drive&lt;br style=&quot;font-size: 24px;&quot;&gt;(Plans and Assessments)" style="shape=cylinder3;whiteSpace=wrap;html=1;boundedLbl=1;backgroundOutline=1;size=15;strokeColor=default;fillColor=default;fontSize=24;" parent="1" vertex="1">
                    <mxGeometry x="1294.66" y="310" width="345" height="110" as="geometry"/>
                </mxCell>
                <mxCell id="Tbqlr_wWn3guzqfGeRMc-14" style="edgeStyle=none;html=1;exitX=0.5;exitY=1;exitDx=0;exitDy=0;entryX=0.5;entryY=0;entryDx=0;entryDy=0;strokeWidth=1;startArrow=none;startFill=0;endArrow=classic;endFill=1;" parent="1" source="Tbqlr_wWn3guzqfGeRMc-10" target="Tbqlr_wWn3guzqfGeRMc-6" edge="1">
                    <mxGeometry relative="1" as="geometry"/>
                </mxCell>
                <mxCell id="Tbqlr_wWn3guzqfGeRMc-10" value="OpenAI /&lt;br style=&quot;font-size: 24px;&quot;&gt;Other Foundational Langauge Model Providers /&lt;br style=&quot;font-size: 24px;&quot;&gt;Self-hosted Foundational Model" style="rounded=0;whiteSpace=wrap;html=1;strokeColor=default;fillColor=default;fontSize=24;" parent="1" vertex="1">
                    <mxGeometry x="1247.16" y="520" width="440" height="150" as="geometry"/>
                </mxCell>
                <mxCell id="Tbqlr_wWn3guzqfGeRMc-13" value="User Background Story and Business Plans" style="text;html=1;strokeColor=none;fillColor=none;align=center;verticalAlign=middle;whiteSpace=wrap;rounded=0;fontSize=16;" parent="1" vertex="1">
                    <mxGeometry x="1244.66" y="460" width="200" height="30" as="geometry"/>
                </mxCell>
                <mxCell id="Tbqlr_wWn3guzqfGeRMc-15" value="Categorized Participant/Business Plans" style="text;html=1;strokeColor=none;fillColor=none;align=center;verticalAlign=middle;whiteSpace=wrap;rounded=0;fontSize=16;" parent="1" vertex="1">
                    <mxGeometry x="1234.66" y="680" width="220" height="40" as="geometry"/>
                </mxCell>
                <mxCell id="Tbqlr_wWn3guzqfGeRMc-22" value="Participant Matching / Other Business Logics" style="rounded=0;whiteSpace=wrap;html=1;strokeColor=default;fillColor=default;fontSize=24;" parent="1" vertex="1">
                    <mxGeometry x="1247.16" y="960" width="440" height="60" as="geometry"/>
                </mxCell>
                <mxCell id="Tbqlr_wWn3guzqfGeRMc-24" value="Adding Participant Database:&lt;br style=&quot;font-size: 24px;&quot;&gt;1. Keeping track of individual's content push&lt;br style=&quot;font-size: 24px;&quot;&gt;&lt;br style=&quot;font-size: 24px;&quot;&gt;Connecting Participant Database with Business Plans/Stories&lt;br style=&quot;font-size: 24px;&quot;&gt;1. Enables customized content pushing&lt;br style=&quot;font-size: 24px;&quot;&gt;2. Enables participant-matching for community building&lt;br style=&quot;font-size: 24px;&quot;&gt;3. Lays out metric collection system for future report-building needs (Data Analytics/Tableau/etc.)" style="text;html=1;strokeColor=none;fillColor=none;align=left;verticalAlign=top;whiteSpace=wrap;rounded=0;fontSize=24;" parent="1" vertex="1">
                    <mxGeometry x="80" y="270" width="1070" height="250" as="geometry"/>
                </mxCell>
                <mxCell id="Tbqlr_wWn3guzqfGeRMc-25" value="Contact Info, Preferences, etc." style="text;html=1;strokeColor=none;fillColor=none;align=center;verticalAlign=middle;whiteSpace=wrap;rounded=0;fontSize=16;" parent="1" vertex="1">
                    <mxGeometry x="1104.6599999999999" y="795" width="150" height="30" as="geometry"/>
                </mxCell>
                <mxCell id="Q90SpO2WY3FgU011MR_9-1" value="MSII SDG&lt;br style=&quot;font-size: 48px;&quot;&gt;Content + User Recommendation System" style="text;html=1;strokeColor=none;fillColor=none;align=left;verticalAlign=middle;whiteSpace=wrap;rounded=0;fontSize=48;" parent="1" vertex="1">
                    <mxGeometry x="80" y="80" width="960" height="122" as="geometry"/>
                </mxCell>
                <mxCell id="Q90SpO2WY3FgU011MR_9-3" value="" style="group" parent="1" vertex="1" connectable="0">
                    <mxGeometry x="499.99999999999994" y="600" width="560" height="420" as="geometry"/>
                </mxCell>
                <mxCell id="Tbqlr_wWn3guzqfGeRMc-7" value="" style="rounded=0;whiteSpace=wrap;html=1;dashed=1;strokeColor=default;fillColor=none;container=0;" parent="Q90SpO2WY3FgU011MR_9-3" vertex="1">
                    <mxGeometry width="560" height="420" as="geometry"/>
                </mxCell>
                <mxCell id="vFcEnWtfR4pPQTd3p-j7-1" value="&lt;font style=&quot;font-size: 24px;&quot;&gt;Notion DB&lt;/font&gt;" style="shape=datastore;whiteSpace=wrap;html=1;fontSize=16;container=0;" parent="Q90SpO2WY3FgU011MR_9-3" vertex="1">
                    <mxGeometry x="60.220000000000084" y="143" width="141.11" height="84.67" as="geometry"/>
                </mxCell>
                <mxCell id="h2Ld7FxPxuiyidLTyYNx-1" value="&lt;font style=&quot;font-size: 24px;&quot;&gt;WhatsApp&lt;/font&gt;" style="rounded=0;whiteSpace=wrap;html=1;container=0;" parent="Q90SpO2WY3FgU011MR_9-3" vertex="1">
                    <mxGeometry x="60.220000000000084" y="318.33000000000004" width="141.11" height="56.67" as="geometry"/>
                </mxCell>
                <mxCell id="Tbqlr_wWn3guzqfGeRMc-1" value="&lt;font style=&quot;font-size: 24px;&quot;&gt;Notion App Container&lt;/font&gt;" style="rounded=0;whiteSpace=wrap;html=1;container=0;" parent="Q90SpO2WY3FgU011MR_9-3" vertex="1">
                    <mxGeometry x="294.6600000000001" y="151.33333333333337" width="202.2222222222222" height="68" as="geometry"/>
                </mxCell>
                <mxCell id="Tbqlr_wWn3guzqfGeRMc-3" style="html=1;exitX=1;exitY=0.5;exitDx=0;exitDy=0;entryX=0;entryY=0.5;entryDx=0;entryDy=0;strokeWidth=1;startArrow=classic;startFill=1;endArrow=classic;endFill=1;" parent="Q90SpO2WY3FgU011MR_9-3" source="vFcEnWtfR4pPQTd3p-j7-1" target="Tbqlr_wWn3guzqfGeRMc-1" edge="1">
                    <mxGeometry relative="1" as="geometry"/>
                </mxCell>
                <mxCell id="Tbqlr_wWn3guzqfGeRMc-4" style="edgeStyle=none;html=1;entryX=1;entryY=0.5;entryDx=0;entryDy=0;strokeWidth=1;startArrow=classic;startFill=1;endArrow=classic;endFill=1;" parent="Q90SpO2WY3FgU011MR_9-3" source="Tbqlr_wWn3guzqfGeRMc-2" target="h2Ld7FxPxuiyidLTyYNx-1" edge="1">
                    <mxGeometry relative="1" as="geometry"/>
                </mxCell>
                <mxCell id="Tbqlr_wWn3guzqfGeRMc-2" value="&lt;font style=&quot;font-size: 24px;&quot;&gt;WhatsApp Container&lt;/font&gt;" style="rounded=0;whiteSpace=wrap;html=1;container=0;" parent="Q90SpO2WY3FgU011MR_9-3" vertex="1">
                    <mxGeometry x="294.6600000000001" y="312.66666666666663" width="202.2222222222222" height="68" as="geometry"/>
                </mxCell>
                <mxCell id="Tbqlr_wWn3guzqfGeRMc-5" style="edgeStyle=none;html=1;entryX=0.5;entryY=0;entryDx=0;entryDy=0;strokeWidth=1;startArrow=classic;startFill=1;endArrow=classic;endFill=1;" parent="Q90SpO2WY3FgU011MR_9-3" source="Tbqlr_wWn3guzqfGeRMc-1" target="Tbqlr_wWn3guzqfGeRMc-2" edge="1">
                    <mxGeometry relative="1" as="geometry"/>
                </mxCell>
                <mxCell id="Tbqlr_wWn3guzqfGeRMc-8" value="&lt;font style=&quot;font-size: 36px;&quot;&gt;Existing Components&lt;/font&gt;" style="text;html=1;strokeColor=none;fillColor=none;align=center;verticalAlign=middle;whiteSpace=wrap;rounded=0;dashed=1;container=0;" parent="Q90SpO2WY3FgU011MR_9-3" vertex="1">
                    <mxGeometry x="68.33500000000004" y="30" width="423.33" height="40" as="geometry"/>
                </mxCell>
            </root>
        </mxGraphModel>
    </diagram>
</mxfile>